<svg xmlns="http://www.w3.org/2000/svg" viewBox="0 0 512 512">
  <rect width="512" height="512" rx="112" fill="#8fd16a"/>
  <path d="M-8 212h528v108H-8zM196-8h120v528H196z" fill="#e9e2d0"/>
  <path d="M-8 222h528v88H-8zM206-8h100v528H206z" fill="#5d6472"/>
  <circle cx="96" cy="100" r="46" fill="#3f9b3a"/><circle cx="82" cy="86" r="20" fill="#5cb84f"/>
  <rect x="352" y="366" width="96" height="92" rx="10" fill="#e76f51"/><path d="M352 412h96" stroke="#00000030" stroke-width="6"/>
  <g transform="translate(256 390)">
    <rect x="-40" y="-50" width="80" height="100" rx="20" fill="#ef4444"/>
    <path d="M0 34V-12" stroke="#1f2937" stroke-width="30" stroke-linecap="round"/>
    <path d="M-28 -6 0 -42 28 -6Z" fill="#1f2937" stroke="#1f2937" stroke-width="14" stroke-linejoin="round"/>
    <path d="M0 34V-12" stroke="#fff" stroke-width="16" stroke-linecap="round"/>
    <path d="M-28 -6 0 -42 28 -6Z" fill="#fff"/>
  </g>
  <g transform="translate(110 266) rotate(90)">
    <rect x="-40" y="-50" width="80" height="100" rx="20" fill="#2f7cf6"/>
    <path d="M22 36V2Q22-16 4-16H-8" fill="none" stroke="#1f2937" stroke-width="30" stroke-linecap="round" stroke-linejoin="round"/>
    <path d="M-10-42-44-16-10 10Z" fill="#1f2937" stroke="#1f2937" stroke-width="14" stroke-linejoin="round"/>
    <path d="M22 36V2Q22-16 4-16H-8" fill="none" stroke="#fff" stroke-width="16" stroke-linecap="round" stroke-linejoin="round"/>
    <path d="M-10-42-44-16-10 10Z" fill="#fff"/>
  </g>
  <g transform="translate(256 140) rotate(180)">
    <rect x="-40" y="-50" width="80" height="100" rx="20" fill="#f5b400"/>
    <path d="M0 34V-12" stroke="#1f2937" stroke-width="30" stroke-linecap="round"/>
    <path d="M-28 -6 0 -42 28 -6Z" fill="#1f2937" stroke="#1f2937" stroke-width="14" stroke-linejoin="round"/>
    <path d="M0 34V-12" stroke="#fff" stroke-width="16" stroke-linecap="round"/>
    <path d="M-28 -6 0 -42 28 -6Z" fill="#fff"/>
  </g>
</svg>
